<?xml version="1.0" encoding="UTF-8" standalone="no"?>
<!DOCTYPE svg PUBLIC "-//W3C//DTD SVG 1.1//EN" "http://www.w3.org/Graphics/SVG/1.1/DTD/svg11.dtd">
<svg width="100%" height="100%" viewBox="0 0 734 417" version="1.1" xmlns="http://www.w3.org/2000/svg" xmlns:xlink="http://www.w3.org/1999/xlink" xml:space="preserve" xmlns:serif="http://www.serif.com/" style="fill-rule:evenodd;clip-rule:evenodd;stroke-linejoin:round;stroke-miterlimit:2;">
    <g transform="matrix(1,0,0,1,-3145.04,-511.186)">
        <g transform="matrix(1,0,0,1,2692.94,0)">
            <g transform="matrix(1.65,0,0,1.977,-792,447.031)">
                <g transform="matrix(0.606061,0,0,0.505817,-1152.09,-226.116)">
                    <path d="M3571.95,899.794C3571.55,899.785 3571.14,899.774 3570.74,899.764C3494.84,901.741 3417.29,905.695 3376.04,927.442L3145.04,927.442L3145.04,899.764L3178.04,899.764L3178.04,879.994L3227.54,879.994L3227.54,899.764L3300.14,899.764L3300.14,879.994L3570.74,879.994C3571.14,879.994 3571.55,879.994 3571.95,879.993L3571.95,899.794Z"/>
                </g>
                <g transform="matrix(0.606061,0,0,0.505817,-1152.09,-226.116)">
                    <path d="M3571.95,870.061C3571.55,870.077 3571.14,870.093 3570.74,870.109L3184.64,870.109C3166.49,870.109 3145.04,836.5 3145.04,814.753C3145.04,777.19 3146.69,739.627 3146.69,704.041C3151.64,662.524 3164.84,624.961 3178.04,587.398C3181.34,579.49 3186.29,571.582 3194.54,571.582L3331.49,571.582C3344.69,577.513 3357.89,583.444 3362.84,601.237C3402.44,717.88 3507.52,793.006 3570.74,793.006C3571.14,793.006 3571.55,793.005 3571.95,793.004L3571.95,870.061Z"/>
                </g>
                <g transform="matrix(0.606061,0,0,0.505817,-1152.09,-226.116)">
                    <path d="M3571.95,793.004L3571.95,870.061C3736.76,863.446 3825.13,814.342 3818.99,616.582L3828.92,616.582C3828.92,801.567 3764.67,879.668 3571.95,879.993L3571.95,899.794C3774.47,904.67 3848.69,819.681 3848.69,616.582L3878.88,616.582L3795.27,511.186L3711.65,616.582L3741.84,616.582C3741.84,762.752 3652.61,792.709 3571.95,793.004Z" style="fill:url(#_Radial1);"/>
                </g>
                <g>
                    <path d="M770,114L875,114C878,114 879,108 877,105C874,95 869,75 864,75L783,75C778,75 773,95 768,105C767,109 768,114 770,114Z" style="fill:white;"/>
                </g>
                <path d="M787,164C787,170 783,174 778,174C773,174 768,170 768,164C768,159 773,155 778,155C783,155 787,159 787,164ZM867,164C867,170 863,174 858,174C853,174 848,170 848,164C848,159 853,155 858,155C863,155 867,159 867,164Z" style="fill:white;fill-rule:nonzero;"/>
                <path d="M913,136L913,171L897,163C896,149 895,134 895,119C901,124 908,132 913,136ZM937,155L938,182L922,175L922,144C929,150 932,151 937,155ZM945,160L945,184C950,186 955,187 960,188L960,166L945,160ZM966,169L966,190C970,191 974,192 978,192L978,172L966,169ZM984,174L984,193C987,194 991,194 994,194L994,176L984,174ZM999,177L999,195L1007,196L1007,178L999,177Z" style="fill:white;"/>
            </g>
        </g>
    </g>
    <defs>
        <radialGradient id="_Radial1" cx="0" cy="0" r="1" gradientUnits="userSpaceOnUse" gradientTransform="matrix(2.00972e-14,-328.212,328.212,2.00972e-14,3571.95,899.794)"><stop offset="0" style="stop-color:black;stop-opacity:1"/><stop offset="0.48" style="stop-color:rgb(7,31,62);stop-opacity:1"/><stop offset="1" style="stop-color:rgb(27,115,232);stop-opacity:1"/></radialGradient>
    </defs>
</svg>
